<?xml version="1.0" encoding="UTF-8" standalone="no"?>
<!-- Created with Inkscape (http://www.inkscape.org/) -->

<svg
   width="32"
   height="32"
   viewBox="0 0 32 32"
   version="1.1"
   id="svg1"
   inkscape:version="1.4 (86a8ad7, 2024-10-11)"
   sodipodi:docname="icon.svg"
   inkscape:export-filename="icon.svg"
   inkscape:export-xdpi="96"
   inkscape:export-ydpi="96"
   xmlns:inkscape="http://www.inkscape.org/namespaces/inkscape"
   xmlns:sodipodi="http://sodipodi.sourceforge.net/DTD/sodipodi-0.dtd"
   xmlns="http://www.w3.org/2000/svg"
   xmlns:svg="http://www.w3.org/2000/svg">
  <sodipodi:namedview
     id="namedview1"
     pagecolor="#505050"
     bordercolor="#eeeeee"
     borderopacity="1"
     inkscape:showpageshadow="0"
     inkscape:pageopacity="0"
     inkscape:pagecheckerboard="0"
     inkscape:deskcolor="#505050"
     inkscape:document-units="px"
     inkscape:zoom="13.203125"
     inkscape:cx="24.388166"
     inkscape:cy="14.579882"
     inkscape:window-width="1920"
     inkscape:window-height="1054"
     inkscape:window-x="-9"
     inkscape:window-y="-9"
     inkscape:window-maximized="1"
     inkscape:current-layer="layer1" />
  <defs
     id="defs1" />
  <g
     inkscape:label="Capa 1"
     inkscape:groupmode="layer"
     id="layer1">
    <rect
       style="fill:#0a0a0a;fill-opacity:1;stroke:none;stroke-width:0;stroke-dasharray:none"
       id="rect1"
       width="32"
       height="32"
       x="0"
       y="0"
       rx="3.6792676" />
    <path
       d="m 7.6373182,23.961347 q -0.6906679,0 -0.9893351,-0.298667 -0.2986672,-0.317334 -0.2986672,-1.176002 0,-0.578668 0.1120002,-1.47467 0.1306669,-0.914668 0.4106674,-2.501338 0.4853342,-2.930672 0.7653347,-5.077342 0.1680003,-1.344003 0.1680003,-2.240004 0,-0.840002 -0.6160011,-0.840002 -0.4853342,0 -1.1760021,0.504001 -0.6720012,0.485334 -1.4933361,1.568003 -0.2613338,0.354667 -0.5786677,0.354667 -0.2613338,0 -0.4666675,-0.242667 -0.186667,-0.261334 -0.186667,-0.578667 0,-0.298668 0.1120002,-0.597335 Q 3.5306441,11.04399 3.8106446,10.65199 4.7066463,9.4013206 5.8079816,8.7293194 6.9093169,8.0386515 8.0106522,8.0386515 q 1.0266685,0 1.5680028,0.6533345 0.560001,0.6533345 0.560001,1.904003 0,0.504001 -0.09333,1.194669 -0.093334,0.672001 -0.1680007,1.101336 -0.074667,0.429334 -0.1120002,0.597334 1.0640019,-3.042672 2.3893379,-4.237341 1.325335,-1.2133355 2.912005,-1.2133355 1.213335,0 1.904003,0.8586682 0.709335,0.8586682 0.709335,2.4266713 0,0.616001 -0.168,1.530669 0.933335,-2.576004 2.184004,-3.6960065 1.250669,-1.120002 2.874671,-1.120002 1.30667,0 1.997337,0.8400015 0.709335,0.8400015 0.709335,2.352004 0,0.821335 -0.242667,1.997337 l -1.138669,5.338676 q -0.186667,0.933335 -0.186667,1.605337 0,0.784001 0.354668,1.176002 0.373334,0.392001 1.026668,0.392001 0.616001,0 1.194669,-0.410668 0.597334,-0.410667 1.400002,-1.362669 0.224001,-0.261334 0.504001,-0.261334 0.242667,0 0.373334,0.224001 0.149334,0.224 0.149334,0.616001 0,0.728001 -0.354667,1.157335 -0.970669,1.176002 -1.922671,1.717337 -0.952001,0.541334 -1.997336,0.541334 -1.58667,0 -2.482672,-0.933335 -0.896001,-0.952002 -0.896001,-2.538671 0,-1.101336 0.448001,-3.192006 l 0.746668,-3.416006 q 0.03733,-0.168001 0.130666,-0.597335 0.09333,-0.429334 0.149334,-0.802668 0.056,-0.392001 0.056,-0.765335 0,-0.653334 -0.261334,-0.970668 -0.242667,-0.336001 -0.709334,-0.336001 -0.877335,0 -1.848004,1.138669 -0.952001,1.120002 -1.829336,3.73334 -0.858668,2.613338 -1.400003,6.794679 -0.130667,1.120002 -0.466667,1.512003 -0.317334,0.373334 -1.045335,0.373334 -0.634668,0 -0.933335,-0.298667 -0.280001,-0.298668 -0.280001,-1.120002 0,-0.765335 0.205334,-1.997337 0.205333,-1.250669 0.522667,-2.930672 0.858669,-4.517342 0.858669,-5.824011 0,-0.709334 -0.280001,-1.045335 -0.261334,-0.336001 -0.802668,-0.336001 -0.914668,0 -1.885337,1.045336 -0.970668,1.026668 -1.904003,3.67734 -0.9146686,2.632004 -1.5306697,7.130679 -0.1306669,0.952002 -0.3920007,1.325336 -0.2426671,0.373334 -0.9706684,0.373334 z"
       id="text1"
       style="font-size:18.6667px;line-height:0.9;font-family:Pacifico;-inkscape-font-specification:Pacifico;letter-spacing:-0.04px;word-spacing:0px;fill:#fafafa;stroke-width:0"
       aria-label="M" />
  </g>
</svg>
